<svg xmlns="http://www.w3.org/2000/svg" xmlns:xlink="http://www.w3.org/1999/xlink" width="443.263" height="358.832" viewBox="0 0 443.263 358.832">
  <defs>
    <clipPath id="clip-path">
      <ellipse id="Ellipse_1" data-name="Ellipse 1" cx="221.632" cy="179.416" rx="221.632" ry="179.416" fill="none"/>
    </clipPath>
  </defs>
  <g id="Layer_2" data-name="Layer 2" transform="translate(-1.9 -2.22)">
    <g id="Layer_1" data-name="Layer 1" transform="translate(1.9 2.22)">
      <g id="Group_1" data-name="Group 1" clip-path="url(#clip-path)">
        <line id="Line_1" data-name="Line 1" y2="188.324" transform="translate(503.04 390.789)" fill="none"/>
        <path id="Path_1" data-name="Path 1" d="M282.907,193.938a8.448,8.448,0,0,0-.253-1.435,17.469,17.469,0,0,1,0-2.575v-3h0a1.773,1.773,0,0,1,0-1.055V182.5a3.336,3.336,0,0,1,0-.718c0-.76,0-1.562,0-2.28a1.731,1.731,0,0,1,1.224-1.689,155.831,155.831,0,0,0-1.435-15.915,8.773,8.773,0,0,1,0-1.055,5.4,5.4,0,0,0-.464-1.478,80.216,80.216,0,0,1-3.208-14.86,10.342,10.342,0,0,1,0-1.6,140.754,140.754,0,0,1-7.388-18.955h0a59.986,59.986,0,0,1-4.222-7.937,23.931,23.931,0,0,1-1.858-5.826,183.725,183.725,0,0,0-18.659-27.9,126.645,126.645,0,0,0-16.886-18.533c-4.939-4.222-10.681-7.43-15.155-11.947a6.545,6.545,0,0,1-.971-1.309,19.757,19.757,0,0,1-8.95-4.728c-.464-.422-.76-.76-.971-.971l-2.322-1.435c-1.9-1.1-3.8-2.2-5.615-3.377l-13.509-8.907a24.992,24.992,0,0,1-4.728-4.222l-6.543-1.393a17.562,17.562,0,0,1-10.216-6.543c-8.443-1.942-16.886-4.01-24.232-6.375a23.557,23.557,0,0,1-3.5-1.478A164.342,164.342,0,0,1,113.074,8.57c-2.913-.549-5.784-1.393-8.654-2.237a22.712,22.712,0,0,1-4.6-.633A252.737,252.737,0,0,0,63.682.38a19.081,19.081,0,0,1-9.752.675v373.9c5.952.38,11.9.675,17.984.633a23.6,23.6,0,0,1,5.91.718,20.094,20.094,0,0,1,10.892-3.082,178.022,178.022,0,0,0,47.788-8.739,19.461,19.461,0,0,1,5.15-2.66c12.665-4.222,25.54-7.641,37.994-11.863a4.517,4.517,0,0,1,3.082-4.222c5.488-2.406,11.4-4.222,16.886-6.29,3.124-2.2,5.952-4.981,8.865-7.3h0a16.633,16.633,0,0,1,9.625-13.425c11.145-5.868,21.53-16.38,30.269-25.329,3.757-3.884,7.008-8.063,10.765-11.947,1.773-4.517,3.673-10.3,5.868-15.493a5.066,5.066,0,0,1,.675-4.222c1.224-2.069,2.406-4.222,3.5-6.459.971-3,1.773-6.29,2.28-7.683,1.646-4.222,3.462-8.443,5.361-12.665a5.907,5.907,0,0,1,.464-1.689,6.288,6.288,0,0,1-.591-2.153,12.369,12.369,0,0,1,1.266-5.192,12.074,12.074,0,0,1,.8-4.222,1.308,1.308,0,0,1,.3-.591h0v-.422h0v-.253h0v-.549h0v-.38c0-.127,0,0,.3,0h0l-.253-.549h.38a7.8,7.8,0,0,1,0-.971h.422v.3a4.56,4.56,0,0,1,1.309-1.52c.338-1.6.633-3.166.887-4.77h0a2.449,2.449,0,0,1,0,.591h-.338a5.019,5.019,0,0,1,0-1.351h-.591a1.52,1.52,0,0,1,0-.591h0a6.258,6.258,0,0,1,0-.8v-.422h0q.132-.747.338-1.478h0a5.065,5.065,0,0,1,.633-2.364h.338v.3a3.54,3.54,0,0,1,.253-.591h.676a9.976,9.976,0,0,1,0,1.182h0v.464h0a29.239,29.239,0,0,1,.549-3.715,53.947,53.947,0,0,1-.422-6.923A1.984,1.984,0,0,1,282.907,193.938Z" transform="translate(165.717 -8.148)" fill="#333"/>
        <path id="Path_2" data-name="Path 2" d="M108.455,48.82Z" transform="translate(340.761 147.904)" fill="#333"/>
        <path id="Path_3" data-name="Path 3" d="M184.4,373.741a17.857,17.857,0,0,1,13.931,1.646H206.1c4.222,0,8.19,0,12.369.253l9.2.633V2.286a19.167,19.167,0,0,1-2.111-.507c-15.282-4.222-35.757,0-50.954,2.955h-1.562a17.477,17.477,0,0,1-2.575,1.1c-10.132,3.546-21.4,5.7-30.015,9.414a25.92,25.92,0,0,1-10.385,2.2,20.306,20.306,0,0,1-7.05,3.377c-3.293.887-11.356,5.277-14.607,6.712A63.83,63.83,0,0,0,96.8,33.779,24.189,24.189,0,0,1,86.8,38.592c-1.055,1.351-2.111,2.7-3.251,4.01a43.313,43.313,0,0,1-8.19,6.966s-2.111,1.562-2.575,1.815a36,36,0,0,0-2.828,2.364,67.543,67.543,0,0,0-6.966,7.388,14.48,14.48,0,0,1-7.768,4.855c-.253.253-.464.591-.76.844C52.516,68.48,50.236,70,48.337,71.478c0,0,0,.211-1.055,1.14l-1.773,1.857-1.224,1.309-.422.633c-1.013,1.562-1.9,3.166-2.955,4.686A20.348,20.348,0,0,1,30.4,89.124,15.62,15.62,0,0,1,27.9,93.008l-.422.971c-.591,1.309-1.224,2.617-1.857,3.926a40.738,40.738,0,0,1-6.5,8.95l-2.575,2.66A16.38,16.38,0,0,1,14.016,121l.464-.633c.675-1.815,1.942-2.955,0,0a42.111,42.111,0,0,0-1.266,4.222c-1.013,3.251-2.28,6.248-3.588,9.456,1.815-4.222-1.013,2.322-.887,2.153a43.732,43.732,0,0,1-2.111,4.222,45.129,45.129,0,0,1-3.673,5.361,2.575,2.575,0,0,1,.211.507,19.335,19.335,0,0,1-1.309,13.509v.549c-.338,1.562-.718,3.124-1.1,4.686a7.856,7.856,0,0,1-.422,1.562c0,1.266.3,3.884.3,4.222A14.016,14.016,0,0,1,0,175.792c0,1.52,0,3.082,0,4.6v.338s.211.633.422,1.393a19.715,19.715,0,0,1,0,8.739q0,5.995,0,11.9a315.225,315.225,0,0,1,5.91,35.166v1.435a18.744,18.744,0,0,1,5.91,17.14c.3,1.055.549,2.111.844,3.124a16.38,16.38,0,0,0,2.617,6.332c.887,1.224,1.731,2.491,2.575,3.757A17.73,17.73,0,0,1,31.2,278.5a83.207,83.207,0,0,0,14.775,21.614c3.166,3.166,6.29,6.206,7.979,7.979a23.388,23.388,0,0,1,3.5,4.686,20.474,20.474,0,0,1,11.4,10.6,22.923,22.923,0,0,1,6.079,5.7c3.715,2.7,9.5,5.7,13.72,8.654A39.09,39.09,0,0,0,99,342.966c5.15,1.9,8.907,4.981,13.593,7.177a82.106,82.106,0,0,1,13.889,5.53,30.023,30.023,0,0,1,2.533,2.069,16.042,16.042,0,0,1,11.609,5.319c1.182,1.478,9.583,1.646,12.665,2.533a144.765,144.765,0,0,0,20.517,4.728,27.82,27.82,0,0,1,10.6,3.42Z" transform="translate(-8.021 -9.379)" fill="#68c5a8"/>
        <text id="R" transform="translate(27.904 266.415)" fill="#333" font-size="268" font-family="YuGothicUI-Semibold, Yu Gothic UI" font-weight="600"><tspan x="0" y="0">R</tspan></text>
        <text id="D" transform="translate(216.312 266.383)" fill="#68c5a8" font-size="264" font-family="YuGothicUI-Semibold, Yu Gothic UI" font-weight="600"><tspan x="0" y="0">D</tspan></text>
        <line id="Line_2" data-name="Line 2" y2="185.073" transform="translate(219.647 94.436)" fill="none"/>
      </g>
    </g>
  </g>
</svg>
