<svg xmlns="http://www.w3.org/2000/svg" xmlns:xlink="http://www.w3.org/1999/xlink" viewBox="0 0 121.06 139.4"><defs><style>.cls-1{fill:none;}.cls-2{clip-path:url(#clip-path);}.cls-3,.cls-5{fill:#333;}.cls-4,.cls-6{fill:#68c5a8;}.cls-5{font-size:63.95px;}.cls-5,.cls-6{font-family:YuGothicUI-Semibold, Yu Gothic UI;font-weight:600;}.cls-6{font-size:63.42px;}</style><clipPath id="clip-path"><ellipse class="cls-1" cx="54.4" cy="44.72" rx="52.5" ry="42.5"/></clipPath></defs><title>Asset 1</title><g id="Layer_2" data-name="Layer 2"><g id="Layer_1-2" data-name="Layer 1"><g class="cls-2"><line class="cls-1" x1="121.06" y1="94.79" x2="121.06" y2="139.4"/><path class="cls-3" d="M108.17,46.23a2,2,0,0,0-.06-.34,4.14,4.14,0,0,1,0-.61c0-.24,0-.47,0-.71h0a.42.42,0,0,1,0-.25v-.08c0-.09,0-.19,0-.28s0-.05,0-.07,0-.25,0-.37a.79.79,0,0,1,0-.17c0-.18,0-.37,0-.54a.41.41,0,0,1,.29-.4,36.91,36.91,0,0,0-.34-3.77,2.08,2.08,0,0,1,0-.25c0-.11-.07-.23-.11-.35a19,19,0,0,1-.76-3.52,2.45,2.45,0,0,1,0-.38,33.34,33.34,0,0,1-1.75-4.49v0c-.37-.62-.74-1.24-1-1.88a5.67,5.67,0,0,1-.44-1.38,43.52,43.52,0,0,0-4.42-6.61,30,30,0,0,0-4-4.39c-1.17-1-2.53-1.76-3.59-2.83a1.55,1.55,0,0,1-.23-.31,4.68,4.68,0,0,1-2.12-1.12c-.11-.1-.18-.18-.23-.23l-.55-.34c-.45-.26-.9-.52-1.33-.8l-3.2-2.11a5.92,5.92,0,0,1-1.12-1l-1.55-.33a4.16,4.16,0,0,1-2.42-1.55c-2-.46-4-.95-5.74-1.51a5.58,5.58,0,0,1-.83-.35,38.93,38.93,0,0,1-4.73-.59c-.69-.13-1.37-.33-2.05-.53a5.38,5.38,0,0,1-1.09-.15A59.87,59.87,0,0,0,56.24.38a4.52,4.52,0,0,1-2.31.16V89.11c1.41.09,2.82.16,4.26.15a5.59,5.59,0,0,1,1.4.17,4.76,4.76,0,0,1,2.58-.73,42.17,42.17,0,0,0,11.32-2.07A4.61,4.61,0,0,1,74.71,86c3-1,6.05-1.81,9-2.81a1.07,1.07,0,0,1,.73-1c1.3-.57,2.7-1,4-1.49.74-.52,1.41-1.18,2.1-1.73h0a3.94,3.94,0,0,1,2.28-3.18c2.64-1.39,5.1-3.88,7.17-6,.89-.92,1.66-1.91,2.55-2.83.42-1.07.87-2.44,1.39-3.67a1.2,1.2,0,0,1,.16-1c.29-.49.57-1,.83-1.53.23-.71.42-1.49.54-1.82.39-1,.82-2,1.27-3,0-.14.07-.27.11-.4a1.49,1.49,0,0,1-.14-.51A2.93,2.93,0,0,1,107,53.8a2.86,2.86,0,0,1,.19-1,.31.31,0,0,1,.07-.14v0s0,0,0,0l0-.1h0s0,0,0-.06,0,0,0,0l0-.13h0s0-.06,0-.09,0,0,.07,0h0l0,0-.06-.13s.07,0,.09,0a1.85,1.85,0,0,1,0-.23s.1,0,.1,0,0,0,0,.07a1.08,1.08,0,0,1,.31-.36c.08-.38.15-.75.21-1.13h0a.58.58,0,0,1,0,.14,0,0,0,0,1-.08,0,1.19,1.19,0,0,1,0-.32h-.06a0,0,0,0,1-.08,0,.36.36,0,0,1,0-.14l0,0a1.48,1.48,0,0,1,0-.19v-.1s0,0,0,0a3.59,3.59,0,0,1,.08-.35,0,0,0,0,1,0,0,1.2,1.2,0,0,1,.15-.56,0,0,0,0,1,.08,0v.07a.84.84,0,0,1,.06-.14s0,0,.07,0v0s.1,0,.09,0a2.36,2.36,0,0,1,0,.28h0c0,.07,0,.14,0,.21l0-.1h0c0-.29.09-.58.13-.88a12.78,12.78,0,0,1-.1-1.64A.47.47,0,0,1,108.17,46.23Z"/><path class="cls-3" d="M108.31,48.82c-.06,0-.06,0,0,0S108.36,48.82,108.31,48.82Z"/><path class="cls-4" d="M43.68,88.53a4.23,4.23,0,0,1,3.3.39h.12c.57,0,1.15,0,1.72,0,1,0,1.94,0,2.93.06l2.18.15V.54a4.54,4.54,0,0,1-.5-.12c-3.62-1-8.47,0-12.07.7-.13,0-.24,0-.37,0a4.14,4.14,0,0,1-.61.26c-2.4.84-5.07,1.35-7.11,2.23a6.14,6.14,0,0,1-2.46.52,4.81,4.81,0,0,1-1.67.8c-.78.21-2.69,1.25-3.46,1.59A15.12,15.12,0,0,0,22.93,8a5.73,5.73,0,0,1-2.37,1.14c-.25.32-.5.64-.77.95a10.26,10.26,0,0,1-1.94,1.65s-.5.37-.61.43-.45.37-.67.56a16,16,0,0,0-1.65,1.75,3.43,3.43,0,0,1-1.84,1.15c-.06.06-.11.14-.18.2-.46.39-1,.75-1.45,1.1,0,0,0,.05-.25.27l-.42.44-.29.31-.1.15c-.24.37-.45.75-.7,1.11a4.82,4.82,0,0,1-2.49,1.9,3.7,3.7,0,0,1-.59.92l-.1.23c-.14.31-.29.62-.44.93a9.65,9.65,0,0,1-1.54,2.12l-.61.63a3.88,3.88,0,0,1-.6,2.72l.11-.15c.16-.43.46-.7,0,0a.08.08,0,0,0,0,0c-.11.31-.21.63-.3,1-.24.77-.54,1.48-.85,2.24.43-1-.24.55-.21.51-.16.35-.31.68-.5,1A10.69,10.69,0,0,1,.7,34.53a.61.61,0,0,1,.05.12,4.58,4.58,0,0,1-.31,3.2l0,.13c-.08.37-.17.74-.26,1.11,0,.12-.07.24-.1.37,0,.3.07.92.07,1A3.32,3.32,0,0,1,0,41.64c0,.36,0,.73,0,1.09v.08s.05.15.1.33a4.67,4.67,0,0,1,0,2.07q0,1.42,0,2.82A74.67,74.67,0,0,1,1.5,56.36c0,.12,0,.23,0,.34a4.44,4.44,0,0,1,1.4,4.06c.07.25.13.5.2.74A3.88,3.88,0,0,0,3.72,63c.21.29.41.59.61.89a4.2,4.2,0,0,1,3.06,2.08,19.71,19.71,0,0,0,3.5,5.12c.75.75,1.49,1.47,1.89,1.89a5.54,5.54,0,0,1,.83,1.11,4.85,4.85,0,0,1,2.7,2.51,5.43,5.43,0,0,1,1.44,1.35C18.63,78.59,20,79.3,21,80a9.26,9.26,0,0,0,2.45,1.24c1.22.45,2.11,1.18,3.22,1.7a19.45,19.45,0,0,1,3.29,1.31,7.11,7.11,0,0,1,.6.49A3.8,3.8,0,0,1,33.31,86c.28.35,2.27.39,3,.6a34.29,34.29,0,0,0,4.86,1.12A6.59,6.59,0,0,1,43.68,88.53Z"/><text class="cls-5" transform="translate(8.51 65.87) scale(1.08 1)">R</text><text class="cls-6" transform="translate(53.14 65.81) scale(1.09 1)">D</text><line class="cls-1" x1="53.93" y1="24.59" x2="53.93" y2="68.43"/></g></g></g></svg>