<svg xmlns="http://www.w3.org/2000/svg" xmlns:xlink="http://www.w3.org/1999/xlink" width="672.976" height="878" viewBox="0 0 672.976 878">
  <defs>
    <filter id="Ellipse_2" x="0" y="483" width="395" height="395" filterUnits="userSpaceOnUse">
      <feOffset dx="7" dy="3" input="SourceAlpha"/>
      <feGaussianBlur stdDeviation="3" result="blur"/>
      <feFlood flood-opacity="0.161"/>
      <feComposite operator="in" in2="blur"/>
      <feComposite in="SourceGraphic"/>
    </filter>
    <filter id="pencil-alt-solid" x="463.251" y="1" width="209.725" height="209.65" filterUnits="userSpaceOnUse">
      <feOffset dx="8" dy="3" input="SourceAlpha"/>
      <feGaussianBlur stdDeviation="3" result="blur-2"/>
      <feFlood flood-opacity="0.161"/>
      <feComposite operator="in" in2="blur-2"/>
      <feComposite in="SourceGraphic"/>
    </filter>
    <filter id="pencil-alt-solid-2" x="97" y="0" width="535.976" height="535.98" filterUnits="userSpaceOnUse">
      <feOffset dx="7" input="SourceAlpha"/>
      <feGaussianBlur stdDeviation="4" result="blur-3"/>
      <feFlood flood-opacity="0.161"/>
      <feComposite operator="in" in2="blur-3"/>
      <feComposite in="SourceGraphic"/>
    </filter>
  </defs>
  <g id="icon_writing" data-name="icon/writing" transform="translate(-604 -175)">
    <g transform="matrix(1, 0, 0, 1, 604, 175)" filter="url(#Ellipse_2)">
      <circle id="Ellipse_2-2" data-name="Ellipse 2" cx="188.5" cy="188.5" r="188.5" transform="translate(2 489)" fill="#f83b48"/>
    </g>
    <g id="Group_1" data-name="Group 1" transform="translate(0 -97)">
      <g transform="matrix(1, 0, 0, 1, 604, 272)" filter="url(#pencil-alt-solid)">
        <path id="pencil-alt-solid-3" data-name="pencil-alt-solid" d="M497.9,142.1l-46.1,46.1a12.011,12.011,0,0,1-17,0l-111-111a12.011,12.011,0,0,1,0-17l46.1-46.1a48.1,48.1,0,0,1,67.9,0l60.1,60.1A47.922,47.922,0,0,1,497.9,142.1Z" transform="translate(143.98 6.92)" fill="rgba(255,7,24,0.76)"/>
      </g>
      <g transform="matrix(1, 0, 0, 1, 604, 272)" filter="url(#pencil-alt-solid-2)">
        <path id="pencil-alt-solid-4" data-name="pencil-alt-solid" d="M497.9,142.1l-46.1,46.1a12.011,12.011,0,0,1-17,0l-111-111a12.011,12.011,0,0,1,0-17l46.1-46.1a48.1,48.1,0,0,1,67.9,0l60.1,60.1A47.922,47.922,0,0,1,497.9,142.1ZM284.2,99.8,21.6,362.4.4,483.9a24.03,24.03,0,0,0,27.8,27.8l121.5-21.3L412.3,227.8a12.011,12.011,0,0,0,0-17l-111-111a12.132,12.132,0,0,0-17.1,0ZM124.1,339.9a13.942,13.942,0,0,1,0-19.8l154-154a14,14,0,0,1,19.8,19.8l-154,154a13.943,13.943,0,0,1-19.8,0ZM88,424h48v36.3L71.5,471.6,40.4,440.5,51.7,376H88Z" transform="translate(101.98 11.92)"/>
      </g>
    </g>
    <text id="writing" transform="translate(734 908)" font-size="134" font-family="SegoeUI-Bold, Segoe UI" font-weight="700"><tspan x="0" y="0">writing</tspan></text>
  </g>
</svg>
